<svg width="108" height="24" viewBox="0 0 108 48" fill="none" xmlns="http://www.w3.org/2000/svg">
<path d="M16.4298 4.53592C16.9396 5.74237 15.8728 6.90155 14.5631 6.90155H13.8944C13.1628 6.90155 12.5824 6.33487 12.2552 5.68055C12.0737 5.31746 11.8336 5.00709 11.5349 4.74942C11.2363 4.49175 10.882 4.29557 10.472 4.16087C10.068 4.02033 9.61998 3.95005 9.12806 3.95005C8.25549 3.95005 7.50298 4.1638 6.87051 4.5913C6.2439 5.0188 5.76077 5.63663 5.42111 6.44477C5.08731 7.25292 4.92041 8.2309 4.92041 9.37871C4.92041 10.5734 5.09024 11.5748 5.4299 12.3829C5.77541 13.1852 6.25854 13.7913 6.8793 14.2013C7.5059 14.6053 8.24671 14.8074 9.10171 14.8074C9.58191 14.8074 10.0182 14.7459 10.4106 14.6229C10.8088 14.4999 11.1572 14.3213 11.4559 14.0871C11.7604 13.847 12.0093 13.5571 12.2025 13.2174C12.5616 12.5943 13.1417 12.0523 13.8608 12.0566L14.5392 12.0607C15.8653 12.0686 16.9066 13.2435 16.3136 14.4296C15.9329 15.2027 15.4088 15.9083 14.7412 16.5466C14.0736 17.1791 13.2596 17.6827 12.2992 18.0575C11.3446 18.4323 10.2495 18.6197 9.01386 18.6197C7.38585 18.6197 5.92767 18.2625 4.63932 17.548C3.35682 16.8277 2.3437 15.7795 1.59997 14.4033C0.856241 13.0271 0.484375 11.3522 0.484375 9.37871C0.484375 7.39933 0.862097 5.72154 1.61754 4.34534C2.37299 2.96915 3.39488 1.92382 4.68324 1.20937C5.97159 0.494921 7.41513 0.137695 9.01386 0.137695C10.1031 0.137695 11.1104 0.289956 12.0356 0.594476C12.9609 0.893139 13.7749 1.33235 14.4777 1.91211C15.1804 2.48601 15.7514 3.19168 16.1906 4.02911C16.2768 4.19342 16.3565 4.36236 16.4298 4.53592Z" fill="url(#paint0_linear_2343_14186)"/>
<path d="M23.7911 10.6788V16.226C23.7911 17.4122 22.8296 18.3738 21.6434 18.3738C20.4572 18.3738 19.4956 17.4122 19.4956 16.226V2.46113C19.4956 1.31377 20.4258 0.383654 21.5731 0.383654C22.7205 0.383654 23.6506 1.31377 23.6506 2.46113V7.27043C23.6506 7.31898 23.6899 7.35834 23.7385 7.35834C23.7754 7.35834 23.8083 7.33522 23.8214 7.30074C24.1276 6.49669 24.6183 5.86586 25.2932 5.40824C25.9901 4.93974 26.8422 4.7055 27.8495 4.7055C28.7982 4.7055 29.6239 4.91632 30.3266 5.33796C31.0293 5.75375 31.574 6.34229 31.9605 7.10359C32.3528 7.86489 32.5461 8.75503 32.5402 9.774V16.226C32.5402 17.4122 31.5787 18.3738 30.3925 18.3738C29.2063 18.3738 28.2447 17.4122 28.2447 16.226V10.6173C28.2506 9.8677 28.0632 9.28208 27.6826 8.86044C27.3019 8.4388 26.7661 8.22797 26.075 8.22797C25.6241 8.22797 25.2259 8.32753 24.8804 8.52664C24.5407 8.71989 24.2743 8.99806 24.081 9.36114C23.8936 9.72422 23.797 10.1634 23.7911 10.6788Z" fill="url(#paint1_linear_2343_14186)"/>
<path d="M39.0252 18.6022C38.1643 18.6022 37.4001 18.4587 36.7325 18.1717C36.0708 17.8789 35.5466 17.4397 35.1601 16.8541C34.7795 16.2626 34.5892 15.5218 34.5892 14.6317C34.5892 13.8821 34.7209 13.2496 34.9844 12.7343C35.248 12.2189 35.6111 11.8002 36.0737 11.4781C36.5363 11.1561 37.0692 10.913 37.6724 10.749C38.2756 10.5792 38.9198 10.465 39.605 10.4065C40.3721 10.3362 40.9899 10.263 41.4584 10.1869C41.9269 10.1049 42.2666 9.99068 42.4774 9.84427C42.6941 9.69201 42.8024 9.47826 42.8024 9.20302V9.1591C42.8024 8.70818 42.6472 8.35974 42.3368 8.11378C42.0265 7.86782 41.6078 7.74484 41.0807 7.74484C40.5127 7.74484 40.0559 7.86782 39.7104 8.11378C39.1243 8.531 38.5282 9.11418 37.8093 9.08868L37.3511 9.07242C36.1431 9.02957 35.2127 7.89318 35.9128 6.90786C35.9395 6.87033 35.9668 6.83309 35.9946 6.79614C36.4866 6.14611 37.16 5.63663 38.015 5.26769C38.8759 4.89289 39.9095 4.7055 41.1158 4.7055C41.9767 4.7055 42.7702 4.80798 43.4964 5.01294C44.2225 5.21205 44.855 5.50486 45.3938 5.89137C45.9325 6.27202 46.3483 6.74051 46.6411 7.29684C46.9398 7.85318 47.0891 8.48857 47.0891 9.20302V16.3534C47.0891 17.4692 46.1846 18.3738 45.0687 18.3738H43.9883C43.4692 18.3738 43.0484 17.9529 43.0484 17.4338V16.5597C43.0484 16.5234 43.019 16.4939 42.9827 16.4939C42.9582 16.4939 42.9359 16.5075 42.9243 16.529C42.687 16.9705 42.3858 17.3453 42.0206 17.6535C41.6517 17.9697 41.2154 18.2069 40.7118 18.365C40.214 18.5231 39.6518 18.6022 39.0252 18.6022ZM40.3516 15.7912C40.8143 15.7912 41.23 15.6975 41.599 15.5101C41.9738 15.3227 42.2724 15.065 42.495 14.7371C42.7175 14.4033 42.8288 14.0168 42.8288 13.5776V12.777C42.8288 12.5578 42.5907 12.4078 42.3808 12.4708C42.2109 12.5235 42.0235 12.5732 41.8186 12.6201C41.6136 12.6669 41.4028 12.7079 41.1861 12.7431C40.9694 12.7782 40.7615 12.8104 40.5624 12.8397C40.1584 12.9041 39.8128 13.0037 39.5259 13.1384C39.2448 13.2731 39.0281 13.4487 38.8759 13.6654C38.7295 13.8762 38.6563 14.1281 38.6563 14.4209C38.6563 14.8659 38.8144 15.2056 39.1306 15.4398C39.4527 15.6741 39.8597 15.7912 40.3516 15.7912Z" fill="url(#paint2_linear_2343_14186)"/>
<path d="M55.7504 4.88118C56.6236 4.88118 57.3315 5.58909 57.3315 6.46234C57.3315 7.33559 56.6236 8.04351 55.7504 8.04351H50.4008C49.5275 8.04351 48.8196 7.33559 48.8196 6.46234C48.8196 5.58909 49.5275 4.88118 50.4008 4.88118H55.7504ZM50.6028 3.79633C50.6028 2.61016 51.5644 1.64858 52.7506 1.64858C53.9367 1.64858 54.8983 2.61016 54.8983 3.79633V14.131C54.8983 14.3945 54.9393 14.6083 55.0213 14.7722C55.1091 14.9303 55.235 15.0445 55.399 15.1148C55.563 15.1792 55.7592 15.2114 55.9875 15.2114C56.1515 15.2114 56.3243 15.1968 56.5058 15.1675C56.737 15.1242 56.9676 15.2711 57.0158 15.5013L57.3935 17.3026C57.4972 17.7973 57.2 18.2848 56.7079 18.4001C56.3389 18.488 55.8968 18.5436 55.3814 18.567C54.3742 18.6139 53.5104 18.4967 52.7901 18.2156C52.0756 17.9287 51.5281 17.4836 51.1474 16.8804C50.7726 16.2773 50.5911 15.5189 50.6028 14.6053V3.79633Z" fill="url(#paint3_linear_2343_14186)"/>
<path d="M63.8971 16.8339C63.61 17.7501 62.7611 18.3738 61.8009 18.3738C60.2982 18.3738 59.2391 16.8987 59.7195 15.4748L63.8932 3.10487C64.4419 1.47861 65.9894 0.383654 67.7057 0.383654C69.4221 0.383654 70.9696 1.47861 71.5183 3.10487L75.6917 15.4742C76.1722 16.8984 75.1129 18.3738 73.6099 18.3738C72.65 18.3738 71.8012 17.7506 71.5136 16.8348L67.7926 4.98334C67.7801 4.94346 67.7431 4.91632 67.7013 4.91632C67.6595 4.91632 67.6225 4.94348 67.61 4.9834L63.8971 16.8339ZM62.7909 12.9451C62.7909 12.033 63.5303 11.2937 64.4424 11.2937H70.9076C71.8196 11.2937 72.559 12.033 72.559 12.9451C72.559 13.8572 71.8196 14.5965 70.9076 14.5965H64.4424C63.5303 14.5965 62.7909 13.8572 62.7909 12.9451Z" fill="url(#paint4_linear_2343_14186)"/>
<path d="M80.7547 23.4335C79.5685 23.4335 78.6069 22.4719 78.6069 21.2857V7.00697C78.6069 5.83293 79.5587 4.88118 80.7327 4.88118H81.7034C82.3414 4.88118 82.8585 5.39835 82.8585 6.03631V7.11203C82.8585 7.15588 82.8941 7.19143 82.9379 7.19143C82.9697 7.19143 82.9983 7.17248 83.0112 7.14345C83.1855 6.75064 83.4274 6.37134 83.7369 6.00556C84.0649 5.62491 84.4807 5.31454 84.9843 5.07443C85.4938 4.82848 86.1028 4.7055 86.8114 4.7055C87.7484 4.7055 88.6239 4.95146 89.4379 5.44337C90.2578 5.93529 90.9195 6.69366 91.4231 7.71849C91.9268 8.74331 92.1786 10.0492 92.1786 11.6363C92.1786 13.1647 91.9356 14.4443 91.4495 15.475C90.9693 16.5056 90.3193 17.2787 89.4994 17.794C88.6854 18.3093 87.7806 18.567 86.7851 18.567C86.1058 18.567 85.5172 18.4557 85.0194 18.2332C84.5217 18.0107 84.103 17.7179 83.7633 17.3548C83.438 17.001 83.185 16.6221 83.0043 16.2183C82.9957 16.199 82.9766 16.1865 82.9555 16.1865C82.9262 16.1865 82.9024 16.2103 82.9024 16.2396V21.2857C82.9024 22.4719 81.9409 23.4335 80.7547 23.4335ZM82.8146 11.6275C82.8146 12.3536 82.9112 12.9861 83.1045 13.5249C83.3036 14.0636 83.5876 14.4823 83.9565 14.781C84.3313 15.0738 84.7793 15.2202 85.3005 15.2202C85.8276 15.2202 86.2756 15.0738 86.6445 14.781C87.0135 14.4823 87.2916 14.0636 87.479 13.5249C87.6723 12.9861 87.7689 12.3536 87.7689 11.6275C87.7689 10.9013 87.6723 10.2718 87.479 9.73886C87.2916 9.20595 87.0135 8.79309 86.6445 8.50029C86.2814 8.20748 85.8334 8.06107 85.3005 8.06107C84.7735 8.06107 84.3255 8.20455 83.9565 8.4915C83.5876 8.77845 83.3036 9.18838 83.1045 9.72129C82.9112 10.2542 82.8146 10.8896 82.8146 11.6275Z" fill="url(#paint5_linear_2343_14186)"/>
<path d="M96.5773 23.4335C95.3911 23.4335 94.4295 22.4719 94.4295 21.2857V7.00697C94.4295 5.83293 95.3813 4.88118 96.5553 4.88118H97.526C98.1639 4.88118 98.6811 5.39835 98.6811 6.03631V7.11203C98.6811 7.15588 98.7167 7.19143 98.7605 7.19143C98.7923 7.19143 98.8209 7.17248 98.8338 7.14345C99.0081 6.75064 99.25 6.37134 99.5595 6.00556C99.8875 5.62491 100.303 5.31454 100.807 5.07443C101.316 4.82848 101.925 4.7055 102.634 4.7055C103.571 4.7055 104.447 4.95146 105.261 5.44337C106.08 5.93529 106.742 6.69366 107.246 7.71849C107.749 8.74331 108.001 10.0492 108.001 11.6363C108.001 13.1647 107.758 14.4443 107.272 15.475C106.792 16.5056 106.142 17.2787 105.322 17.794C104.508 18.3093 103.603 18.567 102.608 18.567C101.928 18.567 101.34 18.4557 100.842 18.2332C100.344 18.0107 99.9255 17.7179 99.5859 17.3548C99.2606 17.001 99.0076 16.6221 98.8269 16.2183C98.8183 16.199 98.7992 16.1865 98.7781 16.1865C98.7488 16.1865 98.725 16.2103 98.725 16.2396V21.2857C98.725 22.4719 97.7635 23.4335 96.5773 23.4335ZM98.6372 11.6275C98.6372 12.3536 98.7338 12.9861 98.9271 13.5249C99.1262 14.0636 99.4102 14.4823 99.7791 14.781C100.154 15.0738 100.602 15.2202 101.123 15.2202C101.65 15.2202 102.098 15.0738 102.467 14.781C102.836 14.4823 103.114 14.0636 103.302 13.5249C103.495 12.9861 103.591 12.3536 103.591 11.6275C103.591 10.9013 103.495 10.2718 103.302 9.73886C103.114 9.20595 102.836 8.79309 102.467 8.50029C102.104 8.20748 101.656 8.06107 101.123 8.06107C100.596 8.06107 100.148 8.20455 99.7791 8.4915C99.4102 8.77845 99.1262 9.18838 98.9271 9.72129C98.7338 10.2542 98.6372 10.8896 98.6372 11.6275Z" fill="url(#paint6_linear_2343_14186)"/>
<defs>
<linearGradient id="paint0_linear_2343_14186" x1="3.77575" y1="9.65771" x2="109.087" y2="9.65771" gradientUnits="userSpaceOnUse">
<stop stop-color="#25B372"/>
<stop offset="1" stop-color="#43A7D8"/>
</linearGradient>
<linearGradient id="paint1_linear_2343_14186" x1="3.77575" y1="9.65771" x2="109.087" y2="9.65771" gradientUnits="userSpaceOnUse">
<stop stop-color="#25B372"/>
<stop offset="1" stop-color="#43A7D8"/>
</linearGradient>
<linearGradient id="paint2_linear_2343_14186" x1="3.77575" y1="9.65771" x2="109.087" y2="9.65771" gradientUnits="userSpaceOnUse">
<stop stop-color="#25B372"/>
<stop offset="1" stop-color="#43A7D8"/>
</linearGradient>
<linearGradient id="paint3_linear_2343_14186" x1="3.77575" y1="9.65771" x2="109.087" y2="9.65771" gradientUnits="userSpaceOnUse">
<stop stop-color="#25B372"/>
<stop offset="1" stop-color="#43A7D8"/>
</linearGradient>
<linearGradient id="paint4_linear_2343_14186" x1="3.77575" y1="9.65771" x2="109.087" y2="9.65771" gradientUnits="userSpaceOnUse">
<stop stop-color="#25B372"/>
<stop offset="1" stop-color="#43A7D8"/>
</linearGradient>
<linearGradient id="paint5_linear_2343_14186" x1="3.77575" y1="9.65771" x2="109.087" y2="9.65771" gradientUnits="userSpaceOnUse">
<stop stop-color="#25B372"/>
<stop offset="1" stop-color="#43A7D8"/>
</linearGradient>
<linearGradient id="paint6_linear_2343_14186" x1="3.77575" y1="9.65771" x2="109.087" y2="9.65771" gradientUnits="userSpaceOnUse">
<stop stop-color="#25B372"/>
<stop offset="1" stop-color="#43A7D8"/>
</linearGradient>
</defs>
</svg>
